<svg width="24" height="25" viewBox="0 0 24 25" fill="none" xmlns="http://www.w3.org/2000/svg">
<path d="M3.63599 11.7854C3.44852 11.9729 3.3432 12.2272 3.3432 12.4924C3.3432 12.7575 3.44852 13.0118 3.63599 13.1994L9.29299 18.8564C9.48159 19.0385 9.73419 19.1393 9.99639 19.137C10.2586 19.1348 10.5094 19.0296 10.6948 18.8442C10.8802 18.6588 10.9854 18.408 10.9877 18.1458C10.9899 17.8836 10.8891 17.631 10.707 17.4424L6.75699 13.4924H20C20.2652 13.4924 20.5196 13.387 20.7071 13.1995C20.8946 13.0119 21 12.7576 21 12.4924C21 12.2272 20.8946 11.9728 20.7071 11.7853C20.5196 11.5977 20.2652 11.4924 20 11.4924H6.75699L10.707 7.54237C10.8891 7.35377 10.9899 7.10116 10.9877 6.83897C10.9854 6.57677 10.8802 6.32596 10.6948 6.14055C10.5094 5.95514 10.2586 5.84997 9.99639 5.84769C9.73419 5.84542 9.48159 5.94621 9.29299 6.12837L3.63599 11.7854Z" fill="#334155"/>
</svg>
